<svg id="visual" viewBox="0 0 900 600" width="900" height="600" xmlns="http://www.w3.org/2000/svg" xmlns:xlink="http://www.w3.org/1999/xlink" version="1.1"><path d="M0 85L21.5 84C43 83 86 81 128.8 84C171.7 87 214.3 95 257.2 94C300 93 343 83 385.8 82C428.7 81 471.3 89 514.2 96C557 103 600 109 642.8 108C685.7 107 728.3 99 771.2 91C814 83 857 75 878.5 71L900 67L900 0L878.5 0C857 0 814 0 771.2 0C728.3 0 685.7 0 642.8 0C600 0 557 0 514.2 0C471.3 0 428.7 0 385.8 0C343 0 300 0 257.2 0C214.3 0 171.7 0 128.8 0C86 0 43 0 21.5 0L0 0Z" fill="#b3e5fe"></path><path d="M0 169L21.5 161C43 153 86 137 128.8 133C171.7 129 214.3 137 257.2 142C300 147 343 149 385.8 156C428.7 163 471.3 175 514.2 183C557 191 600 195 642.8 185C685.7 175 728.3 151 771.2 138C814 125 857 123 878.5 122L900 121L900 65L878.5 69C857 73 814 81 771.2 89C728.3 97 685.7 105 642.8 106C600 107 557 101 514.2 94C471.3 87 428.7 79 385.8 80C343 81 300 91 257.2 92C214.3 93 171.7 85 128.8 82C86 79 43 81 21.5 82L0 83Z" fill="#a4e0fe"></path><path d="M0 253L21.5 245C43 237 86 221 128.8 208C171.7 195 214.3 185 257.2 188C300 191 343 207 385.8 222C428.7 237 471.3 251 514.2 254C557 257 600 249 642.8 239C685.7 229 728.3 217 771.2 209C814 201 857 197 878.5 195L900 193L900 119L878.5 120C857 121 814 123 771.2 136C728.3 149 685.7 173 642.8 183C600 193 557 189 514.2 181C471.3 173 428.7 161 385.8 154C343 147 300 145 257.2 140C214.3 135 171.7 127 128.8 131C86 135 43 151 21.5 159L0 167Z" fill="#93dbff"></path><path d="M0 421L21.5 416C43 411 86 401 128.8 402C171.7 403 214.3 415 257.2 411C300 407 343 387 385.8 372C428.7 357 471.3 347 514.2 341C557 335 600 333 642.8 331C685.7 329 728.3 327 771.2 334C814 341 857 357 878.5 365L900 373L900 191L878.5 193C857 195 814 199 771.2 207C728.3 215 685.7 227 642.8 237C600 247 557 255 514.2 252C471.3 249 428.7 235 385.8 220C343 205 300 189 257.2 186C214.3 183 171.7 193 128.8 206C86 219 43 235 21.5 243L0 251Z" fill="#84d2fb"></path><path d="M0 511L21.5 510C43 509 86 507 128.8 509C171.7 511 214.3 517 257.2 526C300 535 343 547 385.8 545C428.7 543 471.3 527 514.2 527C557 527 600 543 642.8 545C685.7 547 728.3 535 771.2 533C814 531 857 539 878.5 543L900 547L900 371L878.5 363C857 355 814 339 771.2 332C728.3 325 685.7 327 642.8 329C600 331 557 333 514.2 339C471.3 345 428.7 355 385.8 370C343 385 300 405 257.2 409C214.3 413 171.7 401 128.8 400C86 399 43 409 21.5 414L0 419Z" fill="#75c7f4"></path><path d="M0 601L21.5 601C43 601 86 601 128.8 601C171.7 601 214.3 601 257.2 601C300 601 343 601 385.8 601C428.7 601 471.3 601 514.2 601C557 601 600 601 642.8 601C685.7 601 728.3 601 771.2 601C814 601 857 601 878.5 601L900 601L900 545L878.5 541C857 537 814 529 771.2 531C728.3 533 685.7 545 642.8 543C600 541 557 525 514.2 525C471.3 525 428.7 541 385.8 543C343 545 300 533 257.2 524C214.3 515 171.7 509 128.8 507C86 505 43 507 21.5 508L0 509Z" fill="#66bbec"></path></svg>